<svg width="13" height="13" viewBox="0 0 13 13" fill="none" xmlns="http://www.w3.org/2000/svg">
<path d="M6.61528 8.35237C6.49997 8.3526 6.38822 8.31244 6.29943 8.23886L3.33832 5.77127C3.23753 5.6875 3.17415 5.56713 3.16212 5.43663C3.15009 5.30613 3.19039 5.17619 3.27416 5.07541C3.35793 4.97462 3.47831 4.91125 3.6088 4.89921C3.7393 4.88718 3.86924 4.92748 3.97002 5.01125L6.61528 7.22221L9.26054 5.09022C9.31102 5.04922 9.36911 5.01861 9.43146 5.00013C9.49381 4.98166 9.5592 4.97569 9.62386 4.98257C9.68853 4.98945 9.75119 5.00904 9.80826 5.04022C9.86533 5.0714 9.91568 5.11355 9.9564 5.16424C10.0016 5.21499 10.0358 5.27452 10.0569 5.33911C10.0781 5.4037 10.0856 5.47195 10.0791 5.53959C10.0726 5.60724 10.0523 5.67281 10.0193 5.73221C9.98625 5.79161 9.94133 5.84355 9.88731 5.88478L6.9262 8.26847C6.83486 8.33042 6.72539 8.35996 6.61528 8.35237Z" fill="black"/>
</svg>
