<svg width="70" height="70" viewBox="0 0 70 70" fill="none" xmlns="http://www.w3.org/2000/svg">
<circle cx="35.0192" cy="34.7795" r="34.3763" stroke="#1DB954" stroke-width="0.69447"/>
<g clip-path="url(#clip0_1_656)">
<path d="M34.4188 38.1267C34.0017 38.1023 33.5896 38.024 33.1926 37.8938C32.9548 37.8115 32.7217 37.7165 32.4941 37.6093L32.9391 36.4193C33.2175 36.5505 33.5065 36.6578 33.8031 36.74C34.1481 36.8381 34.5052 36.8869 34.8638 36.8849C35.1622 36.9126 35.4623 36.8533 35.7279 36.7142C35.8036 36.6596 35.8645 36.587 35.9051 36.503C35.9458 36.419 35.9649 36.3262 35.9607 36.233C35.9641 36.1141 35.9316 35.9969 35.8676 35.8966C35.7961 35.7947 35.7046 35.7084 35.5985 35.6431C35.4574 35.5553 35.3085 35.4808 35.1535 35.4206C34.9741 35.3482 34.7671 35.2706 34.5326 35.1878C34.305 35.105 34.0825 35.0136 33.8652 34.9136C33.6535 34.8171 33.4553 34.6937 33.2754 34.5462C33.084 34.3909 32.9316 34.1932 32.83 33.9686C32.7285 33.7441 32.6808 33.499 32.6907 33.2527C32.6899 33.03 32.7231 32.8084 32.789 32.5956C32.8537 32.3866 32.9573 32.1918 33.0942 32.0213C33.2426 31.8403 33.4255 31.6908 33.6324 31.5815C33.8788 31.4521 34.1443 31.363 34.4188 31.3176V30.2H35.7226V31.2762C36.0351 31.3029 36.3448 31.3548 36.6488 31.4315C36.8592 31.4841 37.0651 31.5533 37.2646 31.6384L36.9437 32.8802C36.6875 32.7746 36.4227 32.6915 36.1521 32.6318C35.8414 32.5617 35.5237 32.527 35.2052 32.5284C34.9558 32.5075 34.7061 32.5654 34.4913 32.6939C34.4224 32.7432 34.3667 32.8086 34.3288 32.8843C34.2909 32.9601 34.2721 33.0439 34.274 33.1285C34.2711 33.2276 34.2943 33.3257 34.3412 33.4131C34.3935 33.5001 34.4663 33.573 34.5533 33.6252C34.6668 33.696 34.7862 33.7567 34.9103 33.8065C35.0517 33.8654 35.2224 33.9293 35.4226 33.9984C35.7107 34.1024 35.9924 34.2237 36.266 34.3614C36.5086 34.482 36.7347 34.6334 36.9386 34.8117C37.1259 34.9776 37.2773 35.18 37.3835 35.4065C37.4952 35.6568 37.5499 35.9288 37.544 36.2029C37.5437 36.4115 37.5123 36.6189 37.4508 36.8183C37.3867 37.0253 37.2811 37.2171 37.1404 37.3819C36.9824 37.5647 36.7909 37.7157 36.5764 37.8267C36.3085 37.9627 36.0201 38.0535 35.7226 38.0956V39.3581H34.4188V38.1267Z" fill="#2D3E50"/>
<path d="M35.0196 41.4969C34.8616 41.4975 34.7103 41.5605 34.5986 41.6722C34.4868 41.7839 34.4238 41.9352 34.4233 42.0932V45.029C33.7188 45.1766 33.0939 45.58 32.6696 46.1613C32.2452 46.7427 32.0513 47.4607 32.1255 48.1766C32.1996 48.8926 32.5365 49.5556 33.0711 50.0376C33.6056 50.5197 34.2998 50.7865 35.0196 50.7865C35.7394 50.7865 36.4336 50.5197 36.9681 50.0376C37.5027 49.5556 37.8395 48.8926 37.9137 48.1766C37.9879 47.4607 37.794 46.7427 37.3696 46.1613C36.9452 45.58 36.3204 45.1766 35.6159 45.029V42.0932C35.6154 41.9352 35.5523 41.7839 35.4406 41.6722C35.3289 41.5605 35.1776 41.4975 35.0196 41.4969Z" fill="#2D3E50"/>
<path d="M39.771 30.0281C39.8255 30.084 39.8907 30.1286 39.9628 30.1589C40.0348 30.1893 40.1122 30.205 40.1904 30.205C40.2685 30.205 40.3459 30.1893 40.418 30.1589C40.49 30.1286 40.5552 30.084 40.6098 30.0281L46.7601 23.909C47.3621 24.3035 48.0889 24.4607 48.8001 24.3503C49.5113 24.2399 50.1563 23.8697 50.6103 23.3113C51.0644 22.7529 51.2953 22.046 51.2583 21.3273C51.2213 20.6085 50.9192 19.929 50.4102 19.4201C50.0033 19.0131 49.4848 18.7359 48.9203 18.6236C48.3558 18.5113 47.7707 18.5689 47.239 18.7891C46.7073 19.0094 46.2528 19.3824 45.9331 19.861C45.6134 20.3396 45.4428 20.9023 45.4429 21.4778C45.4392 22.0446 45.6058 22.5994 45.9213 23.0702L39.771 29.1892C39.6607 29.301 39.5989 29.4517 39.5989 29.6086C39.5989 29.7656 39.6607 29.9163 39.771 30.0281ZM47.1402 20.2589C47.4636 19.9358 47.902 19.7543 48.3591 19.7543C48.8162 19.7543 49.2546 19.9358 49.578 20.2589C49.8991 20.5833 50.0793 21.0213 50.0793 21.4778C50.0793 21.9343 49.8991 22.3723 49.578 22.6967C49.2546 23.0198 48.8162 23.2013 48.3591 23.2013C47.902 23.2013 47.4636 23.0198 47.1402 22.6967C46.9797 22.5368 46.8524 22.3469 46.7656 22.1377C46.6787 21.9286 46.634 21.7043 46.634 21.4778C46.634 21.2513 46.6787 21.0271 46.7656 20.8179C46.8524 20.6087 46.9797 20.4188 47.1402 20.2589Z" fill="#1D75B8"/>
<path d="M39.7702 39.53C39.7142 39.5846 39.6697 39.6498 39.6393 39.7218C39.6089 39.7939 39.5933 39.8712 39.5933 39.9494C39.5933 40.0276 39.6089 40.105 39.6393 40.177C39.6697 40.2491 39.7142 40.3143 39.7702 40.3688L45.8893 46.5192C45.5357 47.0606 45.3728 47.7045 45.4264 48.3489C45.48 48.9933 45.747 49.6015 46.1851 50.0771C46.6232 50.5527 47.2075 50.8686 47.8454 50.9747C48.4832 51.0809 49.1383 50.9713 49.7069 50.6633C50.2754 50.3552 50.725 49.8664 50.9845 49.274C51.2439 48.6817 51.2984 48.0198 51.1393 47.393C50.9802 46.7663 50.6165 46.2105 50.106 45.8136C49.5954 45.4168 48.9671 45.2015 48.3205 45.202C47.7537 45.1982 47.1989 45.3649 46.7281 45.6804L40.609 39.53C40.4973 39.4198 40.3466 39.358 40.1896 39.358C40.0327 39.358 39.882 39.4198 39.7702 39.53ZM49.5394 46.8993C49.8625 47.2226 50.0439 47.661 50.0439 48.1181C50.0439 48.5753 49.8625 49.0137 49.5394 49.337C49.215 49.6582 48.7769 49.8383 48.3205 49.8383C47.864 49.8383 47.426 49.6582 47.1016 49.337C46.7785 49.0137 46.597 48.5753 46.597 48.1181C46.597 47.661 46.7785 47.2226 47.1016 46.8993C47.2614 46.7388 47.4514 46.6115 47.6606 46.5246C47.8697 46.4377 48.094 46.393 48.3205 46.393C48.547 46.393 48.7712 46.4377 48.9804 46.5246C49.1896 46.6115 49.3795 46.7388 49.5394 46.8993Z" fill="#1D75B8"/>
<path d="M30.2683 39.5312C30.2137 39.4752 30.1485 39.4307 30.0765 39.4003C30.0044 39.3699 29.927 39.3542 29.8489 39.3542C29.7707 39.3542 29.6933 39.3699 29.6213 39.4003C29.5492 39.4307 29.484 39.4752 29.4295 39.5312L23.2791 45.6502C22.7377 45.2966 22.0938 45.1337 21.4494 45.1873C20.8049 45.2409 20.1968 45.5079 19.7212 45.946C19.2456 46.3842 18.9297 46.9684 18.8235 47.6063C18.7174 48.2442 18.827 48.8992 19.135 49.4678C19.443 50.0363 19.9319 50.4859 20.5242 50.7454C21.1165 51.0048 21.7785 51.0593 22.4052 50.9002C23.032 50.7411 23.5878 50.3775 23.9847 49.8669C24.3815 49.3564 24.5967 48.728 24.5963 48.0814C24.6 47.5146 24.4334 46.9598 24.1179 46.489L30.2683 40.37C30.3785 40.2582 30.4403 40.1075 30.4403 39.9506C30.4403 39.7936 30.3785 39.6429 30.2683 39.5312ZM22.899 49.3003C22.5757 49.6234 22.1372 49.8049 21.6801 49.8049C21.223 49.8049 20.7846 49.6234 20.4612 49.3003C20.1401 48.9759 19.9599 48.5379 19.9599 48.0814C19.9599 47.6249 20.1401 47.1869 20.4612 46.8625C20.7846 46.5394 21.223 46.3579 21.6801 46.3579C22.1372 46.3579 22.5757 46.5394 22.899 46.8625C23.0595 47.0224 23.1868 47.2123 23.2737 47.4215C23.3605 47.6306 23.4053 47.8549 23.4053 48.0814C23.4053 48.3079 23.3605 48.5321 23.2737 48.7413C23.1868 48.9505 23.0595 49.1404 22.899 49.3003Z" fill="#1D75B8"/>
<path d="M30.268 30.0287C30.324 29.9741 30.3685 29.9089 30.3989 29.8369C30.4293 29.7648 30.4449 29.6874 30.4449 29.6093C30.4449 29.5311 30.4293 29.4537 30.3989 29.3817C30.3685 29.3096 30.324 29.2444 30.268 29.1899L24.149 23.0395C24.5434 22.4375 24.7007 21.7107 24.5902 20.9995C24.4798 20.2883 24.1097 19.6433 23.5513 19.1893C22.9929 18.7352 22.2859 18.5044 21.5672 18.5413C20.8484 18.5783 20.1689 18.8805 19.66 19.3894C19.1146 19.9353 18.8081 20.6754 18.8081 21.4471C18.8081 22.2188 19.1146 22.9589 19.66 23.5048C19.9294 23.7761 20.2501 23.9911 20.6034 24.1374C20.9566 24.2836 21.3354 24.3582 21.7177 24.3567C22.2845 24.3604 22.8393 24.1938 23.3102 23.8783L29.4292 30.0287C29.5409 30.1389 29.6916 30.2007 29.8486 30.2007C30.0055 30.2007 30.1562 30.1389 30.268 30.0287ZM20.4988 22.6594C20.1758 22.3361 19.9943 21.8977 19.9943 21.4405C19.9943 20.9834 20.1758 20.545 20.4988 20.2217C20.8232 19.9005 21.2613 19.7203 21.7177 19.7203C22.1742 19.7203 22.6122 19.9005 22.9366 20.2217C23.2597 20.545 23.4412 20.9834 23.4412 21.4405C23.4412 21.8977 23.2597 22.3361 22.9366 22.6594C22.7768 22.8199 22.5868 22.9472 22.3777 23.0341C22.1685 23.1209 21.9442 23.1657 21.7177 23.1657C21.4912 23.1657 21.267 23.1209 21.0578 23.0341C20.8487 22.9472 20.6587 22.8199 20.4988 22.6594Z" fill="#1D75B8"/>
<path d="M32.11 21.6799C32.1107 22.3482 32.3409 22.9959 32.7619 23.5148C33.183 24.0337 33.7695 24.3922 34.4232 24.5306V27.4664C34.4232 27.6245 34.4861 27.7762 34.5979 27.888C34.7097 27.9999 34.8614 28.0627 35.0196 28.0627C35.1777 28.0627 35.3294 27.9999 35.4413 27.888C35.5531 27.7762 35.6159 27.6245 35.6159 27.4664V24.5305C36.1545 24.4181 36.6501 24.1553 37.0454 23.7726C37.4407 23.39 37.7195 22.9031 37.8494 22.3685C37.9793 21.8339 37.955 21.2735 37.7794 20.7521C37.6038 20.2307 37.2841 19.7698 36.8572 19.4227C36.4303 19.0756 35.9138 18.8566 35.3676 18.7911C34.8214 18.7255 34.2677 18.8161 33.7709 19.0524C33.274 19.2886 32.8543 19.6608 32.5603 20.1259C32.2664 20.5909 32.1102 21.1298 32.11 21.6799V21.6799Z" fill="#2D3E50"/>
<path d="M45.2686 34.1837H42.3328C42.1746 34.1837 42.0229 34.2466 41.9111 34.3584C41.7992 34.4702 41.7364 34.6219 41.7364 34.7801C41.7364 34.9382 41.7992 35.0899 41.9111 35.2017C42.0229 35.3136 42.1746 35.3764 42.3328 35.3764H45.2686C45.4161 36.0809 45.8195 36.7057 46.4008 37.1301C46.9822 37.5545 47.7002 37.7483 48.4162 37.6742C49.1321 37.6 49.7952 37.2631 50.2772 36.7286C50.7592 36.1941 51.026 35.4998 51.026 34.7801C51.026 34.0603 50.7592 33.3661 50.2772 32.8315C49.7952 32.297 49.1321 31.9601 48.4162 31.8859C47.7002 31.8118 46.9822 32.0056 46.4008 32.43C45.8195 32.8544 45.4161 33.4792 45.2686 34.1837Z" fill="#2D3E50"/>
<path d="M21.919 37.6903C22.5872 37.6895 23.2349 37.4594 23.7538 37.0383C24.2727 36.6172 24.6313 36.0308 24.7696 35.377H27.7054C27.8636 35.377 28.0152 35.3142 28.1271 35.2023C28.2389 35.0905 28.3017 34.9388 28.3017 34.7807C28.3017 34.6225 28.2389 34.4708 28.1271 34.359C28.0152 34.2472 27.8636 34.1843 27.7054 34.1843H24.7696C24.6571 33.6458 24.3943 33.1501 24.0117 32.7548C23.629 32.3596 23.1422 32.0808 22.6076 31.9509C22.073 31.821 21.5125 31.8452 20.9911 32.0208C20.4697 32.1964 20.0088 32.5162 19.6617 32.9431C19.3146 33.3699 19.0956 33.8864 19.0301 34.4326C18.9646 34.9789 19.0552 35.5325 19.2914 36.0294C19.5277 36.5262 19.8999 36.946 20.3649 37.2399C20.83 37.5339 21.3688 37.69 21.919 37.6903H21.919Z" fill="#2D3E50"/>
</g>
<defs>
<clipPath id="clip0_1_656">
<rect width="33.3346" height="33.3346" fill="white" transform="translate(18.3521 18.1135)"/>
</clipPath>
</defs>
</svg>
