<svg width="70" height="71" viewBox="0 0 70 71" fill="none" xmlns="http://www.w3.org/2000/svg">
<path d="M40.3592 31.1541L33.8272 38.4709L30.5124 35.1565C30.2857 34.9297 29.9184 34.9297 29.6917 35.1565C29.4649 35.3833 29.4649 35.7505 29.6917 35.9773L33.4406 39.7262C33.5494 39.8353 33.6972 39.8961 33.8512 39.8961C33.8566 39.8961 33.862 39.8961 33.8675 39.8957C34.0273 39.8911 34.1778 39.8214 34.2842 39.7022L41.2257 31.9273C41.4393 31.6881 41.4184 31.3213 41.1792 31.1077C40.9393 30.8944 40.5732 30.9153 40.3592 31.1541Z" fill="#13375B"/>
<path d="M51.4441 35.4038C51.4549 35.3597 51.4622 35.3141 51.4622 35.2665C51.4622 33.7194 49.8575 32.9199 48.4412 32.2141C47.4358 31.7133 46.3968 31.1952 46.1202 30.5424C45.8384 29.876 46.2362 28.7902 46.6201 27.7396C47.1557 26.2757 47.709 24.7622 46.6878 23.7418C45.6864 22.7403 44.2221 23.0793 42.8054 23.4086C41.814 23.6385 40.7881 23.8757 40.1051 23.587C39.4384 23.3049 38.8842 22.4303 38.3483 21.5837C37.5709 20.3574 36.6905 18.967 35.1624 18.967C33.6315 18.967 32.7678 20.3875 32.0063 21.6413C31.4777 22.5116 30.9309 23.4109 30.2649 23.6926C29.5842 23.9809 28.5475 23.7197 27.5453 23.4678C26.1174 23.1095 24.6411 22.7372 23.6373 23.7422C22.623 24.756 23.1145 26.2772 23.5905 27.7488C23.9302 28.7987 24.2812 29.8845 23.9972 30.5567C23.7201 31.2122 22.7271 31.7257 21.7663 32.2226C20.4053 32.9261 18.8625 33.7236 18.8625 35.2673C18.8625 35.3152 18.8702 35.3613 18.8811 35.4058C18.8702 35.4499 18.8629 35.4956 18.8629 35.5432C18.8629 37.0868 20.4057 37.8843 21.7671 38.5878C22.7271 39.0843 23.7205 39.5978 23.9976 40.2533C24.2816 40.9255 23.9306 42.0113 23.5909 43.0616C23.1153 44.5328 22.6234 46.0536 23.6373 47.0678C24.6419 48.0728 26.1181 47.7017 27.5457 47.3422C28.5483 47.0907 29.5854 46.8303 30.2657 47.1182C30.9313 47.3995 31.478 48.2988 32.0066 49.1687C32.7686 50.4221 33.6319 51.8427 35.1628 51.8427C36.6909 51.8427 37.5716 50.4523 38.3487 49.226C38.885 48.3793 39.4391 47.5047 40.1047 47.2226C40.7904 46.9332 41.8144 47.1708 42.8054 47.401C44.2213 47.7296 45.6864 48.0701 46.6871 47.0682C47.7094 46.0474 47.1557 44.5336 46.6201 43.0701C46.2359 42.0195 45.8384 40.9336 46.1198 40.268C46.3968 39.6148 47.4358 39.0967 48.4412 38.596C49.8571 37.8905 51.4622 37.0906 51.4622 35.5435C51.4626 35.4944 51.4549 35.4483 51.4441 35.4038ZM47.9238 37.5554C46.73 38.1502 45.4956 38.7654 45.051 39.8145C44.5916 40.9019 45.0688 42.2064 45.53 43.4675C45.9588 44.6404 46.3643 45.7491 45.8663 46.2459C45.3211 46.7923 44.2259 46.5381 43.0677 46.2695C41.896 45.9979 40.6844 45.7166 39.6528 46.1527C38.6524 46.576 37.9996 47.6069 37.3681 48.6037C36.6913 49.6718 36.052 50.6806 35.1628 50.6806C34.2847 50.6806 33.6602 49.6528 32.9984 48.5646C32.3743 47.5372 31.7284 46.4746 30.7176 46.0478C29.6786 45.6074 28.4508 45.9162 27.262 46.2154C26.0972 46.5075 24.9971 46.7854 24.458 46.2459C23.9461 45.7344 24.3098 44.6091 24.6949 43.4176C25.1 42.1657 25.5183 40.8709 25.0664 39.8002C24.626 38.7585 23.4434 38.1471 22.2999 37.5554C21.1293 36.9506 20.0234 36.379 20.0234 35.542C20.0234 35.494 20.0157 35.448 20.0048 35.4031C20.0157 35.359 20.023 35.3133 20.023 35.2657C20.023 34.4287 21.1286 33.8571 22.2992 33.2523C23.443 32.661 24.626 32.0496 25.066 31.0071C25.518 29.9368 25.0996 28.6424 24.6945 27.3901C24.3095 26.1986 23.9453 25.0733 24.458 24.5614C24.9959 24.0223 26.0961 24.2994 27.2616 24.5923C28.4496 24.8907 29.6775 25.2007 30.7169 24.7603C31.7276 24.3331 32.3735 23.2705 32.9984 22.2431C33.6598 21.1545 34.2843 20.1267 35.1624 20.1267C36.0516 20.1267 36.6909 21.1356 37.3673 22.204C37.9992 23.2008 38.6521 24.2317 39.6528 24.6554C40.6844 25.0915 41.896 24.8102 43.0677 24.5382C44.2259 24.2696 45.3207 24.0154 45.8667 24.5622C46.3639 25.0586 45.9584 26.1669 45.5296 27.3402C45.0684 28.6017 44.5912 29.9062 45.051 30.994C45.4948 32.0426 46.7296 32.6579 47.9234 33.2527C49.1462 33.8618 50.3013 34.4376 50.3013 35.2657C50.3013 35.3137 50.3091 35.3597 50.3199 35.4042C50.3091 35.4483 50.3017 35.494 50.3017 35.5416C50.3017 36.3709 49.1466 36.9463 47.9238 37.5554Z" fill="#13375B"/>
<circle cx="35.2594" cy="35.5027" r="34.3763" stroke="#1DB954" stroke-width="0.69447"/>
</svg>
